<svg id="圖層_1" data-name="圖層 1" xmlns="http://www.w3.org/2000/svg" viewBox="0 0 141.73 47.11"><defs><style>.cls-1,.cls-2{fill:#36a0da;}.cls-2{fill-rule:evenodd;}</style></defs><title>logo</title><path class="cls-1" d="M62.68,150.76a5.37,5.37,0,0,1-2.2.4,3.9,3.9,0,0,1-4.12-4.22,4.15,4.15,0,0,1,4.36-4.38,4.48,4.48,0,0,1,2,.37l-.26.88a3.93,3.93,0,0,0-1.68-.35,3.1,3.1,0,0,0-3.26,3.44,3,3,0,0,0,3.21,3.35,4.34,4.34,0,0,0,1.76-.35Z" transform="translate(-56.36 -104.05)"/><path class="cls-1" d="M71.52,146.78c0,2.87-1.75,4.39-3.87,4.39s-3.75-1.71-3.75-4.23,1.65-4.38,3.87-4.38S71.52,144.3,71.52,146.78Zm-6.47.13c0,1.78,1,3.38,2.66,3.38s2.67-1.57,2.67-3.46c0-1.66-.87-3.39-2.66-3.39S65,145.08,65,146.91Z" transform="translate(-56.36 -104.05)"/><path class="cls-1" d="M73.53,142.69h1.08v7.44h3.57v.9H73.53Z" transform="translate(-56.36 -104.05)"/><path class="cls-1" d="M84.31,147.12H81.07v3h3.61v.9H80v-8.34H84.5v.9H81.07v2.64h3.24Z" transform="translate(-56.36 -104.05)"/><path class="cls-1" d="M86.7,142.8a11.22,11.22,0,0,1,2.07-.17,3.42,3.42,0,0,1,2.41.68,2.09,2.09,0,0,1,.66,1.59A2.19,2.19,0,0,1,90.27,147v0a2.08,2.08,0,0,1,1.22,1.68,13.34,13.34,0,0,0,.64,2.29H91a10.8,10.8,0,0,1-.56-2c-.25-1.15-.69-1.58-1.67-1.62h-1V151H86.7Zm1.08,3.8h1.1c1.15,0,1.88-.63,1.88-1.58s-.78-1.55-1.92-1.56a4.33,4.33,0,0,0-1.07.1Z" transform="translate(-56.36 -104.05)"/><path class="cls-1" d="M95.39,148.41,94.52,151H93.41l2.83-8.34h1.3l2.85,8.34H99.24l-.89-2.62Zm2.74-.84-.82-2.4c-.19-.55-.31-1-.43-1.52h0c-.12.49-.26,1-.42,1.51l-.82,2.41Z" transform="translate(-56.36 -104.05)"/><path class="cls-1" d="M102.87,143.61h-2.54v-.92h6.18v.92H104V151h-1.09Z" transform="translate(-56.36 -104.05)"/><path class="cls-1" d="M112.37,147.12h-3.24v3h3.61v.9h-4.69v-8.34h4.51v.9h-3.43v2.64h3.24Z" transform="translate(-56.36 -104.05)"/><path class="cls-1" d="M122.32,143.61h-2.54v-.92H126v.92h-2.55V151h-1.09Z" transform="translate(-56.36 -104.05)"/><path class="cls-1" d="M131.83,147.12h-3.24v3h3.62v.9h-4.69v-8.34H132v.9h-3.43v2.64h3.24Z" transform="translate(-56.36 -104.05)"/><path class="cls-1" d="M140,150.76a5.37,5.37,0,0,1-2.2.4,3.9,3.9,0,0,1-4.12-4.22,4.15,4.15,0,0,1,4.36-4.38,4.49,4.49,0,0,1,2,.37l-.26.88a3.94,3.94,0,0,0-1.68-.35,3.1,3.1,0,0,0-3.25,3.44,3,3,0,0,0,3.21,3.35,4.34,4.34,0,0,0,1.76-.35Z" transform="translate(-56.36 -104.05)"/><path class="cls-1" d="M143.09,142.69v3.49h4v-3.49h1.09V151h-1.09v-3.91h-4V151H142v-8.34Z" transform="translate(-56.36 -104.05)"/><path class="cls-1" d="M150.7,151v-8.34h1.18l2.67,4.22a23.61,23.61,0,0,1,1.5,2.71h0c-.1-1.12-.12-2.13-.12-3.43v-3.49h1V151h-1.09l-2.65-4.23a26.28,26.28,0,0,1-1.56-2.79h0c.06,1.05.09,2.05.09,3.44V151Z" transform="translate(-56.36 -104.05)"/><path class="cls-1" d="M166.59,146.78c0,2.87-1.75,4.39-3.87,4.39s-3.75-1.71-3.75-4.23,1.65-4.38,3.87-4.38S166.59,144.3,166.59,146.78Zm-6.47.13c0,1.78,1,3.38,2.66,3.38s2.67-1.57,2.67-3.46c0-1.66-.87-3.39-2.66-3.39S160.12,145.08,160.12,146.91Z" transform="translate(-56.36 -104.05)"/><path class="cls-1" d="M168.61,142.69h1.08v7.44h3.57v.9h-4.64Z" transform="translate(-56.36 -104.05)"/><path class="cls-1" d="M181.71,146.78c0,2.87-1.75,4.39-3.87,4.39s-3.75-1.71-3.75-4.23,1.65-4.38,3.87-4.38S181.71,144.3,181.71,146.78Zm-6.47.13c0,1.78,1,3.38,2.66,3.38s2.67-1.57,2.67-3.46c0-1.66-.87-3.39-2.66-3.39S175.24,145.08,175.24,146.91Z" transform="translate(-56.36 -104.05)"/><path class="cls-1" d="M190.08,150.66a7.76,7.76,0,0,1-2.56.46,3.92,3.92,0,0,1-4.28-4.21,4.18,4.18,0,0,1,4.52-4.31,5.16,5.16,0,0,1,2.08.38l-.26.88a4.3,4.3,0,0,0-1.84-.36,3.12,3.12,0,0,0-3.35,3.36,3.06,3.06,0,0,0,3.22,3.37A3.48,3.48,0,0,0,189,150v-2.49h-1.7v-.87h2.75Z" transform="translate(-56.36 -104.05)"/><path class="cls-1" d="M194.2,151v-3.54l-2.64-4.8h1.23L194,145c.32.63.57,1.14.83,1.72h0c.24-.54.52-1.09.84-1.72l1.2-2.3h1.22l-2.8,4.79V151Z" transform="translate(-56.36 -104.05)"/><path class="cls-2" d="M73,131.32v1.18c-1.27.51-3.59,1.5-4.94,2.07v-3.26H56.36V106.78H68v-2.29h5v2.26H84.9v.66c0,6.35,0,12.7,0,19.05a1.92,1.92,0,0,1-.4,1.08c-.88,1.14-1.82,2.23-2.71,3.36a1,1,0,0,1-.93.42Zm6.86-20.62H73.06v16.62h6.75Zm-18.43,0V127.3H68V110.69Z" transform="translate(-56.36 -104.05)"/><path class="cls-2" d="M198.09,133.79c-2.07,0-4,0-5.91,0-.18,0-.42-.22-.54-.4-.89-1.25-1.76-2.53-2.67-3.84-.8,1.27-1.58,2.48-2.31,3.71a.86.86,0,0,1-.87.47c-1.8,0-3.61,0-5.53,0l.37-.6c1.6-2.51,3.19-5,4.82-7.53a.9.9,0,0,0,0-1.22c-1.25-1.74-2.46-3.53-3.67-5.3-.11-.16-.21-.33-.38-.6h2c1.16,0,2.31,0,3.47,0a.81.81,0,0,1,.8.41c.32.51.69,1,1.1,1.57l2.55-4h-9.62v-3.63h4.6v-2.43h-4.62V106.8h4.66v-2.31h5.3v2.28h6c-.57,1.18-1.08,2.27-1.64,3.34-.07.13-.37.2-.56.21-1.24,0-2.47,0-3.75,0v2.41h5.43c0,1.23,0,2.42,0,3.61,0,.18-.17.36-.28.53-1.56,2.54-3.11,5.09-4.69,7.61a.68.68,0,0,0,0,.9c1.83,2.56,3.64,5.13,5.46,7.69Z" transform="translate(-56.36 -104.05)"/><path class="cls-2" d="M178.45,113.72h2.7c-.1.21-.15.37-.23.51-.75,1.35-1.51,2.69-2.23,4a2.28,2.28,0,0,0-.27,1q0,5.18,0,10.35a1.11,1.11,0,0,1-.43.94c-1.22,1-2.41,2.12-3.63,3.16a1.4,1.4,0,0,1-.8.3c-1.31,0-2.63,0-4,0v-3.5h3.68v-4.68h-4.79c.14-.27.23-.46.33-.65q2.13-3.72,4.26-7.44a1.61,1.61,0,0,0,.24-.73c0-2,0-4,0-6a2.54,2.54,0,0,0,0-.27h-4.06v-3.63h4.07v-2.57h5.08v2.52h2.55l-.38.83c-.32.7-.67,1.39-1,2.1-.21.5-.41.95-1.13.69Z" transform="translate(-56.36 -104.05)"/><path class="cls-2" d="M198.09,133.79c-2.07,0-4,0-5.91,0-.18,0-.42-.22-.54-.4-.89-1.25-1.76-2.53-2.67-3.84-.8,1.27-1.58,2.48-2.31,3.71a.86.86,0,0,1-.87.47c-1.8,0-3.61,0-5.53,0l.37-.6c1.6-2.51,3.19-5,4.82-7.53a.9.9,0,0,0,0-1.22c-1.25-1.74-2.46-3.53-3.67-5.3-.11-.16-.21-.33-.38-.6h2c1.16,0,2.31,0,3.47,0a.81.81,0,0,1,.8.41c.32.51.69,1,1.1,1.57l2.55-4h-9.62v-3.63h4.6v-2.43h-4.62V106.8h4.66v-2.31h5.3v2.28h6c-.57,1.18-1.08,2.27-1.64,3.34-.07.13-.37.2-.56.21-1.24,0-2.47,0-3.75,0v2.41h5.43c0,1.23,0,2.42,0,3.61,0,.18-.17.36-.28.53-1.56,2.54-3.11,5.09-4.69,7.61a.68.68,0,0,0,0,.9c1.83,2.56,3.64,5.13,5.46,7.69Z" transform="translate(-56.36 -104.05)"/><path class="cls-2" d="M178.45,113.72h2.7c-.1.21-.15.37-.23.51-.75,1.35-1.51,2.69-2.23,4a2.28,2.28,0,0,0-.27,1q0,5.18,0,10.35a1.11,1.11,0,0,1-.43.94c-1.22,1-2.41,2.12-3.63,3.16a1.4,1.4,0,0,1-.8.3c-1.31,0-2.63,0-4,0v-3.5h3.68v-4.68h-4.79c.14-.27.23-.46.33-.65q2.13-3.72,4.26-7.44a1.61,1.61,0,0,0,.24-.73c0-2,0-4,0-6a2.54,2.54,0,0,0,0-.27h-4.06v-3.63h4.07v-2.57h5.08v2.52h2.55l-.38.83c-.32.7-.67,1.39-1,2.1-.21.5-.41.95-1.13.69Z" transform="translate(-56.36 -104.05)"/><path class="cls-2" d="M136.4,115h-5.35v-3.5h5.29v-2.41l-5,.47v-3.77l14.48-1.33c-.31,1.21-.58,2.33-.89,3.43a.61.61,0,0,1-.44.29c-1.26.18-2.53.34-3.83.51v2.76h5.17c-.53,1.17-1,2.27-1.54,3.35-.06.12-.34.18-.51.19-1,0-2.06,0-3.15,0v.78c0,5.46,0,10.92,0,16.37,0,.6-.14.9-.74,1.08-1.14.34-2.25.79-3.45,1.21Z" transform="translate(-56.36 -104.05)"/><path class="cls-2" d="M154,104.82h4.39V126h2.14L160,127.5c-.11.35-.22.69-.34,1-.21.61-.24,1.4-1.28,1.15,0,1,0,1.91,0,2.82a.67.67,0,0,1-.49.77c-1.28.5-2.54,1-3.9,1.59v-5l-7.9.56v-3.68l7.87-.55Z" transform="translate(-56.36 -104.05)"/><path class="cls-2" d="M134.88,132.42h-4l1.18-15.76h3.85C135.59,121.9,135.23,127.13,134.88,132.42Z" transform="translate(-56.36 -104.05)"/><path class="cls-2" d="M145.78,132.42H142c-.32-5.26-.64-10.5-1-15.77h3.72C145.1,121.9,145.44,127.14,145.78,132.42Z" transform="translate(-56.36 -104.05)"/><path class="cls-2" d="M152.55,110a2.79,2.79,0,1,1-2.79-2.84A2.83,2.83,0,0,1,152.55,110Z" transform="translate(-56.36 -104.05)"/><path class="cls-2" d="M152.55,119.43a2.78,2.78,0,1,1-2.76-2.81A2.78,2.78,0,0,1,152.55,119.43Z" transform="translate(-56.36 -104.05)"/><path class="cls-2" d="M110.92,133.12a.63.63,0,0,1-.75.56c-1.54,0-3.08,0-4.73,0,1.16-3.65,1.76-5.5,2.91-9.12h5Z" transform="translate(-56.36 -104.05)"/><path class="cls-1" d="M100,120.59h3.86v-3.71H100v-1.52h3.19v-3.63H95.87a1,1,0,0,0-.71.35l-2.27,3.35h3v1.43H94.67a.77.77,0,0,0-.65.34c-.4.76-.77,1.5-1.17,2.31l-.55,1.1h3.61v1.69c0,2.61,0,6.59,0,8l-3.82,3.58h8.08l3.65-3.71H100Z" transform="translate(-56.36 -104.05)"/><path class="cls-1" d="M92.49,110.75c0-1.13,0-1.76,0-3.22a1,1,0,0,1,.26-.53l2.37-2.94v2.64h8.61v3.5H95l-2.54,3.36Z" transform="translate(-56.36 -104.05)"/><polygon class="cls-1" points="35.74 17.74 38.67 17.74 38.67 24.87 35.74 27.78 35.74 17.74"/><rect class="cls-1" x="44.54" y="17.74" width="2.93" height="7.24"/><path class="cls-2" d="M113.18,104.55h-4.27a.51.51,0,0,0-.37.24l-1.92,5.77c1.68,0,2.85,0,4.44,0a.43.43,0,0,0,.31-.22Z" transform="translate(-56.36 -104.05)"/><path class="cls-2" d="M119.84,129.93c0-2.84,0-3.85,0-6.69a1.1,1.1,0,0,1,.32-.67c.68-.72,1.41-1.4,2.09-2.13a1.29,1.29,0,0,0,.32-.78c0-1.91,0-3.81,0-5.72v-2.2H106.68v11.89h8.14v10.14h6.49a.41.41,0,0,0,.31-.2c.43-1.09.84-2.18,1.27-3.33h-3A2.23,2.23,0,0,1,119.84,129.93Zm-2.31-9.84h-5.86v-4.82h5.86Z" transform="translate(-56.36 -104.05)"/><path class="cls-2" d="M120.56,104.49a.52.52,0,0,1,.37.24l2,5.83c-1.68,0-2.85,0-4.44,0a.43.43,0,0,1-.31-.22l-1-3.2H113.7l.81-2.64Z" transform="translate(-56.36 -104.05)"/></svg>